<?xml version="1.0" encoding="UTF-8" standalone="no"?>
<!DOCTYPE svg PUBLIC "-//W3C//DTD SVG 1.1//EN" "http://www.w3.org/Graphics/SVG/1.1/DTD/svg11.dtd">
<svg width="100%" height="100%" viewBox="0 0 120 120" version="1.1" xmlns="http://www.w3.org/2000/svg" xmlns:xlink="http://www.w3.org/1999/xlink" xml:space="preserve" xmlns:serif="http://www.serif.com/" style="fill-rule:evenodd;clip-rule:evenodd;stroke-linejoin:round;stroke-miterlimit:1.41421;">
    <g transform="matrix(1,0,0,1,-60,-60)">
        <g id="Button--Back-" serif:id="Button (Back)" transform="matrix(1,0,0,1,-420,-1680)">
            <g id="Background" transform="matrix(0.851935,0,0,0.851935,149.955,278.095)">
                <circle cx="457.834" cy="1786.41" r="70.428" style="fill:rgb(196,58,58);"/>
            </g>
            <g transform="matrix(1,0,0,1,3.04978,2.22327)">
                <path id="Text" d="M517.2,1807.03L517.2,1806.78L531.45,1797.28L532.45,1798.28L526.7,1805.78L556.45,1805.78L556.45,1808.03L526.7,1808.03L532.45,1815.53L531.45,1816.53L517.2,1807.03ZM531.45,1795.78L517.2,1786.28L517.2,1786.03L531.45,1776.53L532.45,1777.53L526.7,1785.03L556.45,1785.03L556.45,1787.28L526.7,1787.28L532.45,1794.78L531.45,1795.78Z" style="fill:white;fill-rule:nonzero;"/>
            </g>
        </g>
    </g>
</svg>