<?xml version="1.0" encoding="UTF-8" standalone="no"?>
<!DOCTYPE svg PUBLIC "-//W3C//DTD SVG 1.1//EN" "http://www.w3.org/Graphics/SVG/1.1/DTD/svg11.dtd">
<svg width="100%" height="100%" viewBox="0 0 120 120" version="1.1" xmlns="http://www.w3.org/2000/svg" xmlns:xlink="http://www.w3.org/1999/xlink" xml:space="preserve" xmlns:serif="http://www.serif.com/" style="fill-rule:evenodd;clip-rule:evenodd;stroke-linejoin:round;stroke-miterlimit:1.41421;">
    <g transform="matrix(1,0,0,1,-480,-1740)">
        <g id="Button--Help-" serif:id="Button (Help)">
            <g id="Background" transform="matrix(0.851935,0,0,0.851935,149.955,278.095)">
                <circle cx="457.834" cy="1786.41" r="70.428" style="fill:rgb(196,58,58);"/>
            </g>
            <g transform="matrix(1,0,0,1,3.04978,2.22327)">
                <path id="Text" d="M532.106,1807.78C532.106,1804.86 532.393,1802.54 532.966,1800.82C533.539,1799.11 534.565,1797.46 536.044,1795.9C537.606,1794.17 538.648,1792.76 539.169,1791.65C539.69,1790.55 539.95,1789.43 539.95,1788.31C539.95,1784.83 538.825,1783.09 536.575,1783.09C535.575,1783.09 534.742,1783.57 534.075,1784.53C533.409,1785.49 533.054,1786.78 533.013,1788.4L524.169,1788.4C524.211,1784.36 525.341,1781.23 527.56,1779C529.778,1776.77 532.784,1775.65 536.575,1775.65C540.45,1775.65 543.461,1776.73 545.606,1778.89C547.752,1781.04 548.825,1784.06 548.825,1787.93C548.825,1791.14 547.502,1794.29 544.856,1797.37L542.263,1800.31C541.409,1801.33 540.804,1802.39 540.45,1803.48C540.096,1804.57 539.898,1806.01 539.856,1807.78L532.106,1807.78ZM531.294,1817.34C531.294,1815.92 531.747,1814.77 532.653,1813.87C533.56,1812.98 534.711,1812.53 536.106,1812.53C537.544,1812.53 538.711,1812.98 539.606,1813.89C540.502,1814.79 540.95,1815.94 540.95,1817.34C540.95,1818.71 540.513,1819.86 539.638,1820.78C538.763,1821.69 537.586,1822.15 536.106,1822.15C534.648,1822.15 533.481,1821.69 532.606,1820.78C531.731,1819.86 531.294,1818.71 531.294,1817.34Z" style="fill:white;fill-rule:nonzero;"/>
            </g>
        </g>
    </g>
</svg>