<?xml version="1.0" encoding="UTF-8" standalone="no"?>
<!DOCTYPE svg PUBLIC "-//W3C//DTD SVG 1.1//EN" "http://www.w3.org/Graphics/SVG/1.1/DTD/svg11.dtd">
<svg width="100%" height="100%" viewBox="0 0 2667 1334" version="1.1" xmlns="http://www.w3.org/2000/svg" xmlns:xlink="http://www.w3.org/1999/xlink" xml:space="preserve" xmlns:serif="http://www.serif.com/" style="fill-rule:evenodd;clip-rule:evenodd;stroke-linejoin:round;stroke-miterlimit:1.41421;">
    <g transform="matrix(4.16667,0,0,4.16667,0,0)">
        <g id="Project-Logo" serif:id="Project Logo">
            <g id="_404" serif:id="404">
                <g id="Background" transform="matrix(1.44383,0,0,2.85,-26.0793,-257.391)">
                    <path d="M461.327,146.453L128.879,146.453L211.991,90.313L461.327,90.313L461.327,146.453Z" style="fill:rgb(242,242,242);"/>
                </g>
                <g transform="matrix(1,0,0,1,-69.0008,-43.9359)">
                    <path id="Text" d="M475.735,134.217C475.485,136.259 474.975,138.16 474.204,139.921C473.433,141.681 472.412,143.212 471.141,144.514C469.871,145.816 468.365,146.832 466.626,147.561C464.886,148.29 462.933,148.655 460.766,148.655C458.954,148.655 457.313,148.379 455.845,147.827C454.376,147.275 453.074,146.52 451.938,145.561C450.803,144.603 449.818,143.478 448.985,142.186C448.152,140.895 447.464,139.504 446.923,138.014C446.381,136.525 445.98,134.978 445.72,133.374C445.459,131.77 445.318,130.176 445.298,128.592L445.298,121.999C445.318,120.415 445.459,118.822 445.72,117.217C445.98,115.613 446.381,114.066 446.923,112.577C447.464,111.087 448.152,109.697 448.985,108.405C449.818,107.113 450.803,105.983 451.938,105.014C453.074,104.046 454.376,103.285 455.845,102.733C457.313,102.181 458.954,101.905 460.766,101.905C462.975,101.905 464.949,102.27 466.688,102.999C468.428,103.728 469.933,104.743 471.204,106.046C472.475,107.348 473.49,108.884 474.251,110.655C475.011,112.426 475.506,114.353 475.735,116.436L472.016,116.436C471.766,114.874 471.365,113.405 470.813,112.03C470.261,110.655 469.527,109.452 468.61,108.421C467.693,107.389 466.589,106.577 465.298,105.983C464.006,105.389 462.496,105.092 460.766,105.092C459.287,105.092 457.975,105.342 456.829,105.842C455.683,106.342 454.678,107.009 453.813,107.842C452.949,108.676 452.214,109.65 451.61,110.764C451.006,111.879 450.516,113.061 450.141,114.311C449.766,115.561 449.49,116.837 449.313,118.139C449.136,119.441 449.048,120.707 449.048,121.936L449.048,128.592C449.048,129.822 449.136,131.092 449.313,132.405C449.49,133.717 449.766,134.999 450.141,136.249C450.516,137.499 451.006,138.681 451.61,139.796C452.214,140.91 452.949,141.889 453.813,142.733C454.678,143.577 455.683,144.249 456.829,144.749C457.975,145.249 459.287,145.499 460.766,145.499C462.516,145.499 464.042,145.212 465.345,144.639C466.647,144.066 467.751,143.27 468.657,142.249C469.563,141.228 470.292,140.03 470.845,138.655C471.397,137.28 471.787,135.801 472.016,134.217L475.735,134.217Z" style="fill:rgb(197,58,58);fill-rule:nonzero;"/>
                    <path d="M508.079,135.342L490.766,135.342L486.735,148.03L482.954,148.03L497.766,102.53L501.141,102.53L515.829,148.03L512.079,148.03L508.079,135.342ZM491.829,131.999L507.016,131.999L499.454,108.061L491.829,131.999Z" style="fill:rgb(197,58,58);fill-rule:nonzero;"/>
                    <path d="M528.235,102.53L537.391,128.28L547.141,102.53L552.048,102.53L552.048,148.03L548.391,148.03L548.391,127.874L548.673,107.53L538.579,134.342L536.141,134.342L526.766,107.967L527.079,127.874L527.079,148.03L523.423,148.03L523.423,102.53L528.235,102.53Z" style="fill:rgb(197,58,58);fill-rule:nonzero;"/>
                </g>
            </g>
            <g id="Player-Unknown" serif:id="Player Unknown">
                <g id="Background1" serif:id="Background" transform="matrix(1.00153,0,0,0.990181,-2.44461,-1.93351)">
                    <rect x="2.441" y="163.539" width="639.024" height="161.587" style="fill:rgb(198,57,57);"/>
                </g>
                <g transform="matrix(1,0,0,1,-289.001,116.064)">
                    <path id="Text1" serif:id="Text" d="M586.985,105.717L572.485,105.717L572.485,147.936L568.829,147.936L568.86,105.717L554.329,105.717L554.329,102.436L586.985,102.436L586.985,105.717Z" style="fill:white;fill-rule:nonzero;"/>
                    <path d="M618.079,135.248L600.766,135.248L596.735,147.936L592.954,147.936L607.766,102.436L611.141,102.436L625.829,147.936L622.079,147.936L618.079,135.248ZM601.829,131.905L617.016,131.905L609.454,107.967L601.829,131.905Z" style="fill:white;fill-rule:nonzero;"/>
                    <path d="M662.485,142.53C661.589,143.592 660.6,144.509 659.516,145.28C658.433,146.051 657.282,146.681 656.063,147.17C654.845,147.66 653.568,148.014 652.235,148.233C650.902,148.452 649.548,148.561 648.173,148.561C646.36,148.54 644.699,148.254 643.188,147.702C641.678,147.149 640.318,146.389 639.11,145.42C637.902,144.452 636.85,143.316 635.954,142.014C635.058,140.712 634.313,139.311 633.72,137.811C633.126,136.311 632.673,134.743 632.36,133.108C632.048,131.472 631.881,129.842 631.86,128.217L631.86,121.842C631.881,120.259 632.032,118.665 632.313,117.061C632.595,115.457 633.022,113.91 633.595,112.42C634.167,110.931 634.881,109.545 635.735,108.264C636.589,106.983 637.6,105.863 638.766,104.905C639.933,103.946 641.251,103.191 642.72,102.639C644.188,102.087 645.829,101.811 647.641,101.811C649.662,101.811 651.532,102.139 653.251,102.795C654.97,103.452 656.475,104.368 657.766,105.545C659.058,106.722 660.105,108.134 660.907,109.78C661.709,111.426 662.214,113.248 662.423,115.248L658.735,115.248C658.443,113.79 658.001,112.436 657.407,111.186C656.813,109.936 656.058,108.863 655.141,107.967C654.225,107.071 653.147,106.368 651.907,105.858C650.667,105.347 649.256,105.092 647.673,105.092C646.214,105.092 644.902,105.337 643.735,105.827C642.568,106.316 641.542,106.972 640.657,107.795C639.772,108.618 639.011,109.577 638.376,110.67C637.74,111.764 637.22,112.931 636.813,114.17C636.407,115.41 636.11,116.681 635.923,117.983C635.735,119.285 635.631,120.551 635.61,121.78L635.61,128.217C635.631,129.488 635.751,130.79 635.97,132.123C636.188,133.457 636.516,134.754 636.954,136.014C637.391,137.274 637.943,138.467 638.61,139.592C639.277,140.717 640.074,141.702 641.001,142.545C641.928,143.389 642.985,144.056 644.173,144.545C645.36,145.035 646.704,145.29 648.204,145.311C649.141,145.332 650.11,145.285 651.11,145.17C652.11,145.056 653.084,144.847 654.032,144.545C654.98,144.243 655.865,143.832 656.688,143.311C657.511,142.79 658.225,142.134 658.829,141.342L658.86,129.592L648.079,129.592L648.079,126.342L662.423,126.342L662.485,142.53Z" style="fill:white;fill-rule:nonzero;"/>
                </g>
            </g>
        </g>
    </g>
</svg>