<?xml version="1.0" encoding="UTF-8" standalone="no"?>
<!DOCTYPE svg PUBLIC "-//W3C//DTD SVG 1.1//EN" "http://www.w3.org/Graphics/SVG/1.1/DTD/svg11.dtd">
<svg width="100%" height="100%" viewBox="0 0 160 160" version="1.1" xmlns="http://www.w3.org/2000/svg" xmlns:xlink="http://www.w3.org/1999/xlink" xml:space="preserve" xmlns:serif="http://www.serif.com/" style="fill-rule:evenodd;clip-rule:evenodd;stroke-linejoin:round;stroke-miterlimit:1.41421;">
    <g transform="matrix(1,0,0,1,-6100,-1660)">
        <g transform="matrix(1,0,0,1,6000,0)">
            <g id="Button--Menu-" serif:id="Button (Menu)" transform="matrix(0.561275,0,0,1.06019,-616.892,-114.222)">
                <rect x="1277.26" y="1673.5" width="285.066" height="150.917" style="fill:rgb(115,115,115);"/>
                <g id="Hamburger" transform="matrix(1,0,0,1.33333,0,-582.987)">
                    <g id="Bottom-Bar" serif:id="Bottom Bar" transform="matrix(1.33253,0,0,0.804664,-608.18,416.055)">
                        <rect x="1468.41" y="1679.92" width="106.964" height="11.722" style="fill:white;"/>
                    </g>
                    <g id="Middle-Bar" serif:id="Middle Bar" transform="matrix(1.33253,0,0,0.804664,-608.18,392.475)">
                        <rect x="1468.41" y="1679.92" width="106.964" height="11.722" style="fill:white;"/>
                    </g>
                    <g id="Top-Bar" serif:id="Top Bar" transform="matrix(1.33253,0,0,0.804664,-608.18,368.894)">
                        <rect x="1468.41" y="1679.92" width="106.964" height="11.722" style="fill:white;"/>
                    </g>
                </g>
            </g>
        </g>
    </g>
</svg>